<?xml version="1.0" encoding="UTF-8" standalone="no"?>
<svg
   xmlns:dc="http://purl.org/dc/elements/1.1/"
   xmlns:cc="http://creativecommons.org/ns#"
   xmlns:rdf="http://www.w3.org/1999/02/22-rdf-syntax-ns#"
   xmlns:svg="http://www.w3.org/2000/svg"
   xmlns="http://www.w3.org/2000/svg"
   xmlns:sodipodi="http://sodipodi.sourceforge.net/DTD/sodipodi-0.dtd"
   xmlns:inkscape="http://www.inkscape.org/namespaces/inkscape"
   version="1.1"
   width="28"
   height="28"
   id="svg2"
   inkscape:version="0.91 r13725"
   sodipodi:docname="icon.svg">
  <metadata
     id="metadata19">
    <rdf:RDF>
      <cc:Work
         rdf:about="">
        <dc:format>image/svg+xml</dc:format>
        <dc:type
           rdf:resource="http://purl.org/dc/dcmitype/StillImage" />
      </cc:Work>
    </rdf:RDF>
  </metadata>
  <defs
     id="defs17" />
  <sodipodi:namedview
     pagecolor="#ffffff"
     bordercolor="#666666"
     borderopacity="1"
     objecttolerance="10"
     gridtolerance="10"
     guidetolerance="10"
     inkscape:pageopacity="0"
     inkscape:pageshadow="2"
     inkscape:window-width="1920"
     inkscape:window-height="1014"
     id="namedview15"
     showgrid="false"
     inkscape:zoom="8.4285714"
     inkscape:cx="14.237288"
     inkscape:cy="14"
     inkscape:window-x="0"
     inkscape:window-y="459"
     inkscape:window-maximized="1"
     inkscape:current-layer="svg2" />
  <desc
     iVinci="yes"
     version="4.6"
     gridStep="20"
     showGrid="yes"
     snapToGrid="no"
     codePlatform="0"
     id="desc4" />
  <rect
     style="fill:#ffffff;fill-opacity:1;stroke:none;stroke-opacity:1"
     id="rect4147"
     width="28"
     height="28"
     x="0"
     y="-4.4408921e-15" />
  <g
     id="Layer1"
     name="Layer 1"
     opacity="1">
    <g
       id="Shape1">
      <desc
         shapeID="1"
         type="0"
         basicInfo-basicType="5"
         basicInfo-roundedRectRadius="12"
         basicInfo-polygonSides="6"
         basicInfo-starPoints="5"
         bounding="rect(-12.25,-10.6088,24.5,21.2177)"
         text=""
         font-familyName="sans"
         font-pixelSize="30"
         font-bold="0"
         font-underline="0"
         font-alignment="1"
         strokeStyle="0"
         markerStart="0"
         markerEnd="0"
         shadowEnabled="0"
         shadowOffsetX="0"
         shadowOffsetY="2"
         shadowBlur="4"
         shadowOpacity="160"
         blurEnabled="0"
         blurRadius="4"
         transform="matrix(-4.09428e-06,1.13853,-1.13853,-4.09428e-06,14.0612,13.9469)"
         pers-center="0,0"
         pers-size="0,0"
         pers-start="0,0"
         pers-end="0,0"
         locked="0"
         mesh=""
         flag=""
         id="desc8" />
      <path
         id="shapePath1"
         d="M14.0612,27.8939 L1.98278,20.9203 L1.98288,6.97337 L14.0614,9.53675e-07 L26.1397,6.97363 L26.1395,20.9206 L14.0612,27.8939 Z"
         style="stroke:none;fill-rule:evenodd;fill:#000000;fill-opacity:1;" />
    </g>
    <g
       id="Shape2">
      <desc
         shapeID="2"
         type="2"
         basicInfo-basicType="0"
         basicInfo-roundedRectRadius="12"
         basicInfo-polygonSides="6"
         basicInfo-starPoints="5"
         bounding="rect(-2.975,-4.725,5.95,9.45)"
         text="s
"
         font-familyName="Helvetica"
         font-pixelSize="30"
         font-bold="0"
         font-underline="0"
         font-alignment="1"
         strokeStyle="0"
         markerStart="0"
         markerEnd="0"
         shadowEnabled="0"
         shadowOffsetX="0"
         shadowOffsetY="2"
         shadowBlur="4"
         shadowOpacity="160"
         blurEnabled="0"
         blurRadius="4"
         transform="matrix(1,0,0,1,14.1198,13.374)"
         pers-center="0,0"
         pers-size="0,0"
         pers-start="0,0"
         pers-end="0,0"
         locked="0"
         mesh=""
         flag=""
         id="desc12" />
      <path
         id="shapePath2"
         d="M10.1208,16.8271 C10.1989,17.7061 10.4187,18.3799 10.78,18.8486 C11.4441,19.6982 12.5964,20.123 14.237,20.123 C15.2136,20.123 16.073,19.9106 16.8152,19.4858 C17.5573,19.061 17.9284,18.4043 17.9284,17.5156 C17.9284,16.8418 17.6306,16.3291 17.0349,15.9775 C16.654,15.7627 15.9021,15.5137 14.779,15.2305 L12.6843,14.7031 C11.3464,14.3711 10.3601,14 9.72531,13.5898 C8.5925,12.877 8.0261,11.8906 8.0261,10.6309 C8.0261,9.14649 8.56076,7.94531 9.6301,7.02734 C10.6994,6.10938 12.1374,5.65039 13.9441,5.65039 C16.3073,5.65039 18.0114,6.34375 19.0564,7.73047 C19.7107,8.60938 20.028,9.55664 20.0085,10.5723 L17.5183,10.5723 C17.4695,9.97656 17.2595,9.43457 16.8884,8.94629 C16.2829,8.25293 15.2331,7.90625 13.739,7.90625 C12.7429,7.90625 11.9885,8.09668 11.4758,8.47754 C10.9631,8.8584 10.7068,9.36133 10.7068,9.98633 C10.7068,10.6699 11.0437,11.2168 11.7175,11.627 C12.1081,11.8711 12.6843,12.0859 13.446,12.2715 L15.1892,12.6963 C17.0837,13.1553 18.3532,13.5996 18.9978,14.0293 C20.0232,14.7031 20.5359,15.7627 20.5359,17.208 C20.5359,18.6045 20.0061,19.8105 18.9465,20.8262 C17.8869,21.8418 16.2732,22.3496 14.1052,22.3496 C11.7712,22.3496 10.1184,21.8198 9.1467,20.7603 C8.17502,19.7007 7.655,18.3896 7.58664,16.8271 L10.1208,16.8271 Z"
         style="stroke:none;fill-rule:nonzero;fill:#ffffff;fill-opacity:1;" />
    </g>
  </g>
</svg>
